<svg xmlns="http://www.w3.org/2000/svg" viewBox="0 0 32 32" fill="none">
  <rect width="32" height="32" rx="7" fill="#7c3aed"/>
  <!-- Anvil base -->
  <rect x="6" y="20" width="20" height="5" rx="2" fill="#e9d5ff"/>
  <!-- Anvil body -->
  <path d="M9 13 L23 13 L21 20 L11 20 Z" fill="white"/>
  <!-- Anvil horn -->
  <path d="M9 13 L6 16 L11 20 Z" fill="#c4b5fd"/>
  <!-- Spark/flame on top -->
  <path d="M14 7 Q16 4 18 7 Q17 5 16 9 Q15 5 14 7Z" fill="#fbbf24"/>
  <path d="M12 9 Q14 6 15 9 Q14 7 13 11 Q12 7 12 9Z" fill="#f59e0b"/>
  <!-- Legs -->
  <rect x="10" y="25" width="4" height="3" rx="1" fill="#c4b5fd"/>
  <rect x="18" y="25" width="4" height="3" rx="1" fill="#c4b5fd"/>
</svg>
